# xmcd
#
# Track frame offsets:
# 150
# 13544
# 27229
# 40261
# 58617
# 73803
# 85974
# 100867
# 112080
# 132974
#
# Disc length: 1928 seconds
#
#
# Revision: 2
# Processed by: cddbd v1.5.2PL0 Copyright (c) Steve Scherf et al.
# Submitted via: FreeRIP 2.951 
#
DISCID=8507860a
DTITLE=George Jones And Friends - God's Country
DYEAR=2006
DGENRE=Country
TTITLE0=God's Country - George Jones
TTITLE1=She Thinks I Still Care - Vince Gill
TTITLE2=Walk Through This World With Me - Mark Chesnutt
TTITLE3=Window Up Above - Tanya Tucker
TTITLE4=Take Me - Pam Tillis
TTITLE5=White Lightning - Joe Diffie
TTITLE6=He Stopped Loving Her Today - Sammy Kershaw
TTITLE7=Beer Run - Garth Brooks and George Jones
TTITLE8=Golden Rings/Were Gonna Hold On Medley - Joe Diffie and Shonna Faegan
TTITLE9=The One I Loved Back Then (Corvette Song) - Tracy Lawrence
EXTD=
EXTT0=
EXTT1=
EXTT2=
EXTT3=
EXTT4=
EXTT5=
EXTT6=
EXTT7=
EXTT8=
EXTT9=
PLAYORDER=
